<svg xmlns="http://www.w3.org/2000/svg" width="45" height="45" viewBox="0 0 50 50">
  <defs>
    <style>
      .cls-1 {
        fill: #404040;
      }
    </style>
  </defs>
  <g id="rulers">
    <path class="cls-1" d="M20.4751,34.9434a1.1742,1.1742,0,0,1,1.2-1.2246,1.1968,1.1968,0,0,1,.2246,2.375l-.1494.0488c0,.0332.0371.0918.1123.1758a.5357.5357,0,0,0,.1875.15.6012.6012,0,0,0,.7.0488,1.3037,1.3037,0,0,0,.6-.75,25.7821,25.7821,0,0,0,.8-5.2246q.3252-3.3487.75-6.1748.6006-4.05,1.125-6.4248.7-3.3252,2.5254-3.7a1.8993,1.8993,0,0,1,.35-.0244,1.8089,1.8089,0,0,1,1.6748,1.125A3.5134,3.5134,0,0,1,30.9,16.793a1.1742,1.1742,0,0,1-1.2,1.2246,1.1968,1.1968,0,0,1-.2246-2.375l.15-.0488c0-.0333-.0381-.0918-.1133-.1758a.5187.5187,0,0,0-.1875-.15.6116.6116,0,0,0-.7246-.0244q-.45.2241-.7246,1.3a44.6233,44.6233,0,0,0-.625,4.625,119.065,119.065,0,0,1-1.8252,12.375,7.081,7.081,0,0,1-1.3,3.2246,2.4526,2.4526,0,0,1-1.5752.75,1.7849,1.7849,0,0,1-1.5254-.75A3.0015,3.0015,0,0,1,20.4751,34.9434Z"/>
  </g>
</svg>
